HIERARCHY
ROOT Hips
{
	OFFSET 0.000000 0.651286 0.000000
	CHANNELS 6 Xposition Yposition Zposition Zrotation Yrotation Xrotation 
	JOINT LeftUpperLeg
	{
		OFFSET 0.042586 -0.009866 -0.052112
		CHANNELS 3 Zrotation Yrotation Xrotation
		JOINT LeftLowerLeg
		{
			OFFSET 0.087349 -0.363558 0.099630
			CHANNELS 3 Zrotation Yrotation Xrotation
			JOINT LeftFoot
			{
				OFFSET -0.067699 -0.172285 -0.346622
				CHANNELS 3 Zrotation Yrotation Xrotation
				End Site #name: L_Foot
				{
					OFFSET 0.036468 -0.103171 0.066606
				}
			}
		}
	}
	JOINT RightUpperLeg
	{
		OFFSET -0.074887 0.009771 -0.035352
		CHANNELS 3 Zrotation Yrotation Xrotation
		JOINT RightLowerLeg
		{
			OFFSET -0.161154 -0.214684 0.265582
			CHANNELS 3 Zrotation Yrotation Xrotation
			JOINT RightFoot
			{
				OFFSET 0.026004 -0.417503 0.016729
				CHANNELS 3 Zrotation Yrotation Xrotation
				End Site #name: R_Foot
				{
					OFFSET -0.075871 -0.026775 0.121117
				}
			}
		}
	}
	JOINT Spine
	{
		OFFSET 0.030430 0.196811 0.026713
		CHANNELS 3 Zrotation Yrotation Xrotation
		JOINT Chest
		{
			OFFSET 0.008597 -0.064223 0.102129
			CHANNELS 3 Zrotation Yrotation Xrotation
			JOINT UpperChest
			{
				OFFSET 0.001702 -0.030906 0.048192
				CHANNELS 3 Zrotation Yrotation Xrotation
				JOINT Neck
				{
					OFFSET 0.002408 -0.000306 0.186784
					CHANNELS 3 Zrotation Yrotation Xrotation
					End Site #name: Head
					{
						OFFSET -0.002076 -0.036460 0.070062
					}
				}
				JOINT LeftShoulder
				{
					OFFSET 0.076313 -0.032313 0.097023
					CHANNELS 3 Zrotation Yrotation Xrotation
					JOINT LeftUpperArm
					{
						OFFSET 0.100049 -0.084426 0.028322
						CHANNELS 3 Zrotation Yrotation Xrotation
						JOINT LeftLowerArm
						{
							OFFSET 0.152735 -0.166657 -0.071444
							CHANNELS 3 Zrotation Yrotation Xrotation
							End Site #name: L_Wrist
							{
								OFFSET 0.016312 -0.276777 -0.043622
							}
						}
					}
				}
				JOINT RightShoulder
				{
					OFFSET -0.073584 0.004170 0.097020
					CHANNELS 3 Zrotation Yrotation Xrotation
					JOINT RightUpperArm
					{
						OFFSET -0.106908 -0.037489 0.038454
						CHANNELS 3 Zrotation Yrotation Xrotation
						JOINT RightLowerArm
						{
							OFFSET -0.199249 -0.077724 -0.131054
							CHANNELS 3 Zrotation Yrotation Xrotation
							End Site #name: R_Wrist
							{
								OFFSET 0.104617 -0.258028 -0.016396
							}
						}
					}
				}
			}
		}
	}
}
MOTION
Frames: 19
Frame Time: 0.041667
0.000000 0.651286 0.000000 0.002120 0.003375 -0.006364 0.000000 0.000000 0.000000 0.000000 0.000000 0.000000 0.000000 0.000000 0.000000 0.000000 0.000000 0.000000 0.000000 0.000000 0.000000 0.000000 0.000000 0.000000 0.000000 0.000000 0.000000 0.000000 0.000000 0.000000 0.002900 -0.006354 0.008197 0.000000 0.000000 0.000000 -0.006875 0.000439 0.002317 0.002599 -0.007520 -0.006990 -0.011850 0.002929 0.017972 -0.013728 0.007821 -0.007681 0.007734 -0.011926 -0.000436 0.001249 0.005445 0.013626 
-0.009686 0.641071 0.024249 0.129036 -0.242313 1.074686 -0.246783 0.461469 2.191339 0.344502 -0.727684 0.082514 0.055942 0.114322 0.222017 -0.657615 0.149265 -1.290506 2.108702 0.265967 4.149407 -0.493135 -0.347790 -0.667229 -0.655096 -1.041647 0.005685 0.065275 0.127155 0.480828 0.112431 -0.735054 -0.415386 0.858922 1.537348 1.260746 0.228140 -0.025154 -0.085998 -0.400004 -0.407196 -0.628645 1.618937 -0.251763 0.071946 0.491163 0.488750 0.007355 -0.036100 0.432838 -0.145616 3.081182 -0.471247 -0.741627 
-0.019109 0.635684 0.048644 0.109095 -0.476938 1.831602 -0.915096 0.900254 4.667660 0.974386 -1.876888 -0.206346 -0.304217 0.109893 0.861252 -0.743370 0.315379 -1.653953 3.428869 0.351209 6.645847 -1.229926 -0.905810 -1.661226 -1.238036 -1.997783 -0.152429 0.181400 0.318993 0.735791 0.193505 -1.079154 -0.552469 1.288995 2.260376 2.052662 0.470464 -0.189776 -0.294984 -0.444323 -0.314030 -0.547658 2.565798 -0.397822 0.169625 0.653222 0.598519 0.028384 0.165289 0.301785 -0.226269 5.695533 -0.769146 -1.189068 
-0.028315 0.633560 0.072707 0.133534 -0.762425 2.441695 -1.811646 1.404684 7.491572 1.814071 -3.111674 -1.201819 -1.067442 0.034305 1.994695 -0.529617 0.460774 -1.487994 4.446186 0.382415 8.773865 -2.153017 -1.574164 -2.935466 -1.886094 -3.082549 -0.398409 0.246881 0.438939 1.150876 0.291325 -1.239242 -0.762362 1.539879 2.617685 3.001190 0.848631 -0.344629 -0.536495 -0.513038 -0.002249 -0.241250 3.486008 -0.536608 0.432578 0.513513 0.401597 0.045554 0.352848 -0.090923 -0.196556 8.881450 -1.016563 -1.476338 
-0.036964 0.638838 0.096227 0.203704 -1.085840 2.683405 -2.678983 2.008858 10.525310 2.907260 -4.152093 -3.536571 -2.234239 -0.131076 3.510724 0.145605 0.549960 -0.487305 4.790576 0.390748 9.805224 -2.993321 -2.105428 -4.139241 -2.523944 -4.156219 -0.615765 0.273012 0.498560 1.588346 0.404066 -1.255143 -0.962891 1.673409 2.794760 3.569630 1.278675 -0.425290 -0.731722 -0.494123 0.668628 0.491904 3.588094 -0.559653 0.186301 0.351352 0.146518 0.075335 0.524853 -0.528903 -0.140646 11.849045 -1.163169 -1.516505 
-0.045091 0.651091 0.118811 0.363222 -1.585357 2.602053 -3.145700 2.660864 13.354073 4.119104 -4.898036 -6.709525 -4.153587 -0.502694 5.565174 1.243684 0.614240 1.209835 4.275419 0.420189 10.041996 -3.746913 -2.301109 -5.324596 -3.162308 -5.222637 -0.756113 0.340114 0.612134 1.870696 0.499861 -1.082971 -1.046659 1.737986 2.916386 3.514426 1.661100 -0.372324 -0.798867 -0.403278 1.719164 1.663141 2.985779 -0.489608 -0.611092 0.110641 -0.139683 0.088653 0.854156 -0.889299 -0.219782 14.140293 -1.204318 -1.288741 
-0.052785 0.672764 0.139208 0.654119 -2.454650 2.138738 -2.605268 3.105758 14.799915 4.685048 -4.800737 -9.060367 -7.920752 -0.962417 9.746461 2.901145 0.496962 3.968753 2.549449 0.479306 9.455665 -4.464091 -1.767319 -6.686562 -3.701857 -6.073624 -0.655493 0.507251 0.856913 1.697303 0.581284 -0.649916 -0.793460 1.914134 3.373835 2.356349 1.932965 -0.125176 -0.664221 -0.364318 2.835331 2.871167 1.262786 -0.296311 -2.051465 -0.077231 0.086688 -0.058234 1.094036 -1.171208 -0.271078 15.719349 -1.191154 -0.947384 
-0.060379 0.701164 0.155205 1.246534 -3.541822 1.293314 -0.767858 2.880995 12.806682 3.668317 -3.791149 -7.390783 -12.435920 -0.401676 16.401261 4.842318 0.437532 6.974612 -0.031394 0.484866 7.779842 -4.863923 -1.237412 -7.511606 -3.707030 -5.797545 0.484976 0.823907 1.309092 0.829015 0.513732 -0.305823 -0.372786 2.360680 4.260431 1.875525 1.124030 0.252927 -0.103207 -0.796054 2.733848 2.544132 -0.671779 -0.133418 -3.701373 0.229448 1.550131 -0.455435 1.626227 -0.960427 -0.700929 13.332239 -1.247164 -1.581484 
-0.067016 0.723489 0.166325 2.347672 -4.612140 -0.003027 1.845289 2.342134 8.430163 2.792417 -3.438769 -4.628591 -12.154597 0.484199 18.094287 6.157140 0.211078 9.180139 -2.788271 0.530284 7.408235 -5.082536 -0.722406 -8.025514 -3.081272 -4.485738 1.924121 0.908608 1.421231 0.183533 0.383224 0.619918 -0.144204 2.616914 4.812015 1.376302 -0.274912 0.513190 0.509260 -0.965567 2.052894 1.740562 -2.788305 0.052282 -4.644767 0.206076 3.021917 -0.970519 1.799404 0.537644 -1.380660 11.260282 -1.405660 -2.430650 
-0.071624 0.740257 0.174839 3.809429 -5.601212 -1.611137 5.214771 2.031176 3.283329 2.939906 -3.252825 -5.660807 -9.894048 0.663793 16.046129 6.770181 -0.322619 10.749788 -5.399370 0.667882 8.067275 -5.531275 0.441537 -9.094054 -2.023708 -2.634655 3.133754 0.824742 1.294184 0.287831 0.150515 1.662697 -0.328643 2.705701 4.977325 1.380198 -1.892955 1.172215 1.489213 -1.168993 1.259456 0.801573 -4.600008 0.198764 -5.300269 0.107895 4.031393 -1.353990 1.944403 3.102536 -2.464127 8.461264 -1.400600 -2.733242 
-0.073258 0.748049 0.182786 5.251673 -6.217620 -3.054161 8.471521 2.154833 -0.821838 4.294542 -3.032237 -11.653103 -7.120295 1.296356 14.300440 6.639529 -1.027403 11.503180 -7.462940 0.898691 9.370738 -6.031171 1.388693 -10.165591 -0.829378 -0.811336 3.335627 0.531431 0.873006 1.156178 -0.090700 2.653044 -0.881878 2.858133 5.254927 1.423858 -3.086683 2.132933 2.571248 -1.198844 0.875801 0.379993 -6.118348 0.356994 -5.394537 -0.116114 4.478104 -1.595441 1.883312 5.469366 -3.367271 5.652163 -0.841529 -1.402967 
-0.071172 0.750927 0.190840 6.515192 -6.552100 -4.252388 11.314210 2.596287 -3.348432 6.218418 -2.286147 -20.868644 -4.694227 2.293974 13.806415 6.165721 -1.701609 11.747623 -9.130703 1.206769 11.026653 -6.705084 1.945511 -11.405126 0.225994 0.681832 2.634959 0.196203 0.405864 2.089385 -0.246663 3.681010 -1.428257 3.167182 5.888089 1.109979 -3.587398 3.204523 3.553384 -1.098053 1.179472 0.750606 -7.717204 0.534967 -5.386839 -0.401564 4.606442 -1.753426 1.493265 7.196399 -3.837047 3.860169 0.039356 0.767314 
-0.064773 0.751283 0.199526 7.570059 -6.664925 -5.418792 13.536259 3.139983 -4.350659 8.301217 -0.990813 -31.808908 -3.859205 3.024445 14.728445 5.340558 -2.624023 11.849055 -10.279853 1.577302 13.007801 -7.414759 2.368185 -12.661898 1.032886 1.744710 1.037380 -0.014650 0.145437 3.161038 -0.325222 4.836050 -2.085547 3.580576 6.801866 0.419521 -3.289163 4.555443 4.584683 -0.778761 2.223749 2.013925 -9.538864 0.750745 -5.294564 -0.683089 4.294742 -1.757864 0.670749 8.240871 -3.782325 3.421580 0.768870 2.647537 
-0.053036 0.748096 0.209071 8.009109 -6.571990 -6.452967 14.513257 3.447300 -4.247191 10.475997 -0.161506 -41.171445 -5.216301 3.327397 17.339743 4.182535 -3.787935 11.832757 -10.429188 1.929155 15.200089 -7.833342 2.657196 -13.409350 1.477011 2.201756 -1.582300 0.054267 0.309862 4.468491 -0.410559 5.709680 -2.826078 3.842465 7.457068 -0.310242 -2.395741 5.910092 5.525191 0.071315 3.656501 3.968615 -11.736442 1.089898 -4.732804 -0.781712 3.658839 -1.575181 -0.401541 8.407831 -3.209843 4.141062 1.169527 3.917867 
-0.035590 0.740291 0.219567 7.924016 -6.297227 -7.476063 15.232591 3.697786 -3.900524 11.037866 0.601450 -45.210777 -8.648532 2.188512 18.375092 2.504300 -5.208560 11.445481 -10.441406 2.398729 18.200488 -8.026638 2.877122 -13.772948 1.800686 2.424774 -5.127058 0.051715 0.371073 5.853872 -0.496325 6.479032 -3.644515 3.389152 6.790029 -1.356714 -1.389442 7.137963 6.378639 2.086154 5.217383 6.750300 -14.967744 1.758535 -3.254926 -0.976269 2.175382 -1.128253 -1.613493 8.231329 -2.397536 6.186460 1.490370 5.437134 
-0.012220 0.732351 0.230324 7.380596 -6.283693 -8.303149 15.415161 3.598254 -5.535770 10.260978 -0.238465 -40.291955 -10.394687 0.882597 17.127425 1.248384 -6.554924 11.618799 -11.079276 2.770998 20.009371 -8.209916 3.667332 -14.243435 2.176428 2.802300 -8.558911 -0.194595 0.086559 7.006144 -0.536152 6.850452 -3.989063 2.765145 5.637991 -1.822725 -0.532307 8.236365 7.183574 3.484470 6.373090 8.831373 -17.537274 2.436669 -1.712694 -1.396062 0.666861 -0.745768 -2.789881 8.208457 -1.666711 8.231560 1.542600 6.309373 
0.015291 0.727285 0.241715 6.718560 -6.401991 -9.298260 14.966500 3.256175 -7.555316 9.010099 -1.224137 -33.440624 -10.497676 -0.026430 15.110015 -0.011180 -8.278697 12.476237 -12.887704 3.161717 20.782374 -7.851625 4.943889 -13.943350 2.644407 3.432709 -12.019784 -0.649098 -0.451773 8.365318 -0.604943 7.198897 -4.479626 2.038374 4.269418 -2.389187 0.269156 9.295010 7.993635 4.782502 7.665051 11.058576 -20.202236 3.368408 0.482367 -2.175593 -1.031105 -0.405494 -4.345430 7.797296 -0.513676 10.663831 1.639810 7.596894 
0.045954 0.728101 0.253188 5.922011 -6.507877 -10.296437 13.838310 2.746885 -8.736017 8.177368 -2.101648 -28.213519 -9.215842 -0.316024 12.920685 -1.122859 -10.327672 14.300347 -15.250517 3.287679 19.679291 -6.904300 6.814062 -12.848454 3.058116 4.094995 -14.878476 -1.075544 -0.925466 9.737771 -0.698438 7.382778 -5.028099 1.324037 2.887959 -2.926611 0.913330 10.126231 8.648827 5.602507 9.119590 13.196384 -22.364829 4.342646 2.755832 -3.093161 -2.622607 -0.124431 -5.948165 7.019896 0.861091 12.826808 1.905380 9.535409 
0.078752 0.736171 0.264758 5.007886 -6.493886 -11.362753 12.291526 2.211349 -8.722823 7.826116 -2.799960 -25.140621 -7.901556 -0.308444 11.296347 -2.133228 -12.727597 17.239668 -17.911358 2.948746 16.535540 -5.440522 9.432835 -11.155487 3.406294 4.720537 -17.395624 -1.535118 -1.419049 11.081346 -0.761542 7.407065 -5.506846 0.669310 1.589127 -3.381984 1.572631 10.866760 9.238299 5.842369 10.943763 15.348517 -23.688950 5.260187 5.111484 -4.069756 -4.145691 0.140843 -7.582258 6.062754 2.368544 14.539123 2.455334 12.524932 
